<?xml version="1.0" standalone="no"?>
<!DOCTYPE svg PUBLIC "-//W3C//DTD SVG 20010904//EN"
 "http://www.w3.org/TR/2001/REC-SVG-20010904/DTD/svg10.dtd">
<svg version="1.0" xmlns="http://www.w3.org/2000/svg"
 width="512.000000pt" height="512.000000pt" viewBox="0 0 512.000000 512.000000"
 preserveAspectRatio="xMidYMid meet">

<g transform="translate(0.000000,512.000000) scale(0.100000,-0.100000)"
fill="#000000" stroke="none">
<path d="M0 2560 l0 -2560 2560 0 2560 0 0 2560 0 2560 -2560 0 -2560 0 0
-2560z m1425 1005 c415 -55 784 -200 1135 -449 147 -104 424 -377 535 -526
238 -323 397 -699 459 -1085 21 -128 36 -344 36 -512 l0 -133 -332 0 c-857 -1
-827 -2 -885 25 -108 49 -143 115 -154 290 -28 448 -305 822 -724 980 -91 35
-247 65 -334 65 -106 0 -167 23 -227 84 -40 41 -54 64 -62 102 -11 51 -18 510
-14 943 l2 244 223 -6 c122 -3 276 -13 342 -22z"/>
</g>
</svg>
